# MagicaVoxel @ Ephtracy

# group
o 

# material
mtllib firsttank-2.mtl
usemtl palette

# normals
vn -1 0 0
vn 1 0 0
vn 0 0 1
vn 0 0 -1
vn 0 -1 0
vn 0 1 0

# texcoords
vt 0.306641 0.5
vt 0.970703 0.5
vt 0.978516 0.5
vt 0.982422 0.5
vt 0.986328 0.5
vt 0.990234 0.5

# verts
v -6.7 0.1 10
v -6.7 0.1 7
v -6.7 0.1 6.9
v -6.7 0.2 10.4
v -6.7 0.2 10
v -6.7 0.2 7
v -6.7 0.2 6.9
v -6.7 0.2 6.8
v -6.7 0.2 6.7
v -6.7 0.3 10.5
v -6.7 0.3 10.4
v -6.7 0.3 10
v -6.7 0.3 7
v -6.7 0.3 6.8
v -6.7 0.3 6.7
v -6.7 0.3 6.6
v -6.7 0.4 6.7
v -6.7 0.4 6.6
v -6.7 0.4 6.5
v -6.7 0.5 10.5
v -6.7 0.5 10.4
v -6.7 0.5 6.6
v -6.7 0.5 6.5
v -6.7 0.6 10.5
v -6.7 0.6 10.4
v -6.7 0.6 6.7
v -6.7 0.6 6.6
v -6.7 0.6 6.5
v -6.7 0.7 10.5
v -6.7 0.7 10.4
v -6.7 0.7 10.3
v -6.7 0.7 10.2
v -6.7 0.7 10.1
v -6.7 0.7 9.6
v -6.7 0.7 9.5
v -6.7 0.7 7.6
v -6.7 0.7 7.4
v -6.7 0.7 7
v -6.7 0.7 6.9
v -6.7 0.7 6.7
v -6.7 0.7 6.6
v -6.7 0.7 6.5
v -6.7 0.8 10.4
v -6.7 0.8 10.3
v -6.7 0.8 10.2
v -6.7 0.8 10.1
v -6.7 0.8 10
v -6.7 0.8 9.9
v -6.7 0.8 9.7
v -6.7 0.8 9.6
v -6.7 0.8 9.5
v -6.7 0.8 9.4
v -6.7 0.8 9.3
v -6.7 0.8 9.1
v -6.7 0.8 9
v -6.7 0.8 8.8
v -6.7 0.8 8.7
v -6.7 0.8 8.5
v -6.7 0.8 8.4
v -6.7 0.8 8.2
v -6.7 0.8 8.1
v -6.7 0.8 7.9
v -6.7 0.8 7.8
v -6.7 0.8 7.7
v -6.7 0.8 7.6
v -6.7 0.8 7.4
v -6.7 0.8 7.3
v -6.7 0.8 7.2
v -6.7 0.8 7.1
v -6.7 0.8 7
v -6.7 0.8 6.9
v -6.7 0.8 6.7
v -6.7 0.8 6.6
v -6.7 0.9 10.2
v -6.7 0.9 10.1
v -6.7 0.9 10
v -6.7 0.9 9.9
v -6.7 0.9 9.7
v -6.7 0.9 9.6
v -6.7 0.9 9.5
v -6.7 0.9 9.4
v -6.7 0.9 9.3
v -6.7 0.9 9.1
v -6.7 0.9 9
v -6.7 0.9 8.8
v -6.7 0.9 8.7
v -6.7 0.9 8.5
v -6.7 0.9 8.4
v -6.7 0.9 8.2
v -6.7 0.9 8.1
v -6.7 0.9 7.9
v -6.7 0.9 7.8
v -6.7 0.9 7.7
v -6.7 0.9 7.6
v -6.7 0.9 7.4
v -6.7 0.9 7.3
v -6.7 0.9 7.2
v -6.7 0.9 7.1
v -6.7 0.9 7
v -6.7 0.9 6.9
v -6.4 0.3 10
v -6.4 0.3 7
v -6.4 0.4 10.3
v -6.4 0.4 10
v -6.4 0.4 7
v -6.4 0.4 6.7
v -6.4 0.6 10.3
v -6.4 0.6 10.1
v -6.4 0.6 7
v -6.4 0.6 6.7
v -6.4 0.7 10.1
v -6.4 0.7 9.6
v -6.4 0.7 9.5
v -6.4 0.7 7.6
v -6.4 0.7 7.4
v -6.4 0.7 7
v -6.3 0.1 10
v -6.3 0.1 7
v -6.3 0.1 6.9
v -6.3 0.2 10.4
v -6.3 0.2 10
v -6.3 0.2 7
v -6.3 0.2 6.9
v -6.3 0.2 6.8
v -6.3 0.2 6.7
v -6.3 0.3 10.5
v -6.3 0.3 10.4
v -6.3 0.3 10
v -6.3 0.3 7
v -6.3 0.3 6.8
v -6.3 0.3 6.7
v -6.3 0.3 6.6
v -6.3 0.4 10.3
v -6.3 0.4 10
v -6.3 0.4 7
v -6.3 0.4 6.7
v -6.3 0.4 6.6
v -6.3 0.4 6.5
v -6.3 0.5 10.5
v -6.3 0.5 10.4
v -6.3 0.5 6.6
v -6.3 0.5 6.5
v -6.3 0.6 10.5
v -6.3 0.6 10.4
v -6.3 0.6 10.3
v -6.3 0.6 10.1
v -6.3 0.6 7
v -6.3 0.6 6.7
v -6.3 0.6 6.6
v -6.3 0.6 6.5
v -6.3 0.7 10.5
v -6.3 0.7 10.4
v -6.3 0.7 10.3
v -6.3 0.7 10.2
v -6.3 0.7 10.1
v -6.3 0.7 9.6
v -6.3 0.7 9.5
v -6.3 0.7 7.6
v -6.3 0.7 7.4
v -6.3 0.7 7
v -6.3 0.7 6.9
v -6.3 0.7 6.7
v -6.3 0.7 6.6
v -6.3 0.7 6.5
v -6.3 0.8 10.4
v -6.3 0.8 10.3
v -6.3 0.8 10.2
v -6.3 0.8 10.1
v -6.3 0.8 10
v -6.3 0.8 9.9
v -6.3 0.8 9.7
v -6.3 0.8 9.6
v -6.3 0.8 9.5
v -6.3 0.8 9.4
v -6.3 0.8 9.3
v -6.3 0.8 9.1
v -6.3 0.8 9
v -6.3 0.8 8.8
v -6.3 0.8 8.7
v -6.3 0.8 8.5
v -6.3 0.8 8.4
v -6.3 0.8 8.2
v -6.3 0.8 8.1
v -6.3 0.8 7.9
v -6.3 0.8 7.8
v -6.3 0.8 7.7
v -6.3 0.8 7.6
v -6.3 0.8 7.4
v -6.3 0.8 7.3
v -6.3 0.8 7.2
v -6.3 0.8 7.1
v -6.3 0.8 7
v -6.3 0.8 6.9
v -6.3 0.8 6.7
v -6.3 0.8 6.6
v -6.3 0.9 10.2
v -6.3 0.9 10.1
v -6.3 0.9 10
v -6.3 0.9 9.9
v -6.3 0.9 9.7
v -6.3 0.9 9.6
v -6.3 0.9 9.5
v -6.3 0.9 9.4
v -6.3 0.9 9.3
v -6.3 0.9 9.1
v -6.3 0.9 9
v -6.3 0.9 8.8
v -6.3 0.9 8.7
v -6.3 0.9 8.5
v -6.3 0.9 8.4
v -6.3 0.9 8.2
v -6.3 0.9 8.1
v -6.3 0.9 7.9
v -6.3 0.9 7.8
v -6.3 0.9 7.7
v -6.3 0.9 7.6
v -6.3 0.9 7.4
v -6.3 0.9 7.3
v -6.3 0.9 7.2
v -6.3 0.9 7.1
v -6.3 0.9 7
v -6.3 0.9 6.9
v -6.7 0.3 10.5
v -6.7 0.5 10.5
v -6.7 0.6 10.5
v -6.7 0.7 10.5
v -6.3 0.3 10.5
v -6.3 0.5 10.5
v -6.3 0.6 10.5
v -6.3 0.7 10.5
v -6.7 0.2 10.4
v -6.7 0.3 10.4
v -6.7 0.7 10.4
v -6.7 0.8 10.4
v -6.3 0.2 10.4
v -6.3 0.3 10.4
v -6.3 0.7 10.4
v -6.3 0.8 10.4
v -6.7 0.8 10.2
v -6.7 0.9 10.2
v -6.3 0.8 10.2
v -6.3 0.9 10.2
v -6.7 0.1 10
v -6.7 0.2 10
v -6.3 0.1 10
v -6.3 0.2 10
v -6.7 0.8 9.5
v -6.7 0.9 9.5
v -6.3 0.8 9.5
v -6.3 0.9 9.5
v -6.7 0.8 7.4
v -6.7 0.9 7.4
v -6.3 0.8 7.4
v -6.3 0.9 7.4
v -6.4 0.3 7
v -6.4 0.4 7
v -6.4 0.6 7
v -6.4 0.7 7
v -6.3 0.3 7
v -6.3 0.4 7
v -6.3 0.6 7
v -6.3 0.7 7
v -6.4 0.4 6.7
v -6.4 0.6 6.7
v -6.3 0.4 6.7
v -6.3 0.6 6.7
v -6.4 0.4 10.3
v -6.4 0.6 10.3
v -6.3 0.4 10.3
v -6.3 0.6 10.3
v -6.4 0.6 10.1
v -6.4 0.7 10.1
v -6.3 0.6 10.1
v -6.3 0.7 10.1
v -6.4 0.3 10
v -6.4 0.4 10
v -6.3 0.3 10
v -6.3 0.4 10
v -6.7 0.8 9.6
v -6.7 0.9 9.6
v -6.3 0.8 9.6
v -6.3 0.9 9.6
v -6.7 0.8 7.6
v -6.7 0.9 7.6
v -6.3 0.8 7.6
v -6.3 0.9 7.6
v -6.7 0.1 6.9
v -6.7 0.2 6.9
v -6.7 0.8 6.9
v -6.7 0.9 6.9
v -6.3 0.1 6.9
v -6.3 0.2 6.9
v -6.3 0.8 6.9
v -6.3 0.9 6.9
v -6.7 0.2 6.7
v -6.7 0.3 6.7
v -6.3 0.2 6.7
v -6.3 0.3 6.7
v -6.7 0.3 6.6
v -6.7 0.4 6.6
v -6.7 0.7 6.6
v -6.7 0.8 6.6
v -6.3 0.3 6.6
v -6.3 0.4 6.6
v -6.3 0.7 6.6
v -6.3 0.8 6.6
v -6.7 0.4 6.5
v -6.7 0.5 6.5
v -6.7 0.6 6.5
v -6.7 0.7 6.5
v -6.3 0.4 6.5
v -6.3 0.5 6.5
v -6.3 0.6 6.5
v -6.3 0.7 6.5
v -6.7 0.1 10
v -6.3 0.1 10
v -6.7 0.1 7
v -6.3 0.1 7
v -6.7 0.1 6.9
v -6.3 0.1 6.9
v -6.7 0.2 10.4
v -6.3 0.2 10.4
v -6.7 0.2 10
v -6.3 0.2 10
v -6.7 0.2 6.9
v -6.3 0.2 6.9
v -6.7 0.2 6.8
v -6.3 0.2 6.8
v -6.7 0.2 6.7
v -6.3 0.2 6.7
v -6.7 0.3 10.5
v -6.3 0.3 10.5
v -6.7 0.3 10.4
v -6.3 0.3 10.4
v -6.7 0.3 6.7
v -6.3 0.3 6.7
v -6.7 0.3 6.6
v -6.3 0.3 6.6
v -6.7 0.4 6.6
v -6.3 0.4 6.6
v -6.7 0.4 6.5
v -6.3 0.4 6.5
v -6.4 0.6 10.3
v -6.3 0.6 10.3
v -6.4 0.6 10.1
v -6.3 0.6 10.1
v -6.4 0.6 7
v -6.3 0.6 7
v -6.4 0.6 6.7
v -6.3 0.6 6.7
v -6.4 0.7 10.1
v -6.3 0.7 10.1
v -6.4 0.7 9.6
v -6.3 0.7 9.6
v -6.4 0.7 9.5
v -6.3 0.7 9.5
v -6.4 0.7 7.6
v -6.3 0.7 7.6
v -6.4 0.7 7.4
v -6.3 0.7 7.4
v -6.4 0.7 7
v -6.3 0.7 7
v -6.4 0.3 10
v -6.3 0.3 10
v -6.4 0.3 7
v -6.3 0.3 7
v -6.4 0.4 10.3
v -6.3 0.4 10.3
v -6.4 0.4 10
v -6.3 0.4 10
v -6.4 0.4 7
v -6.3 0.4 7
v -6.4 0.4 6.7
v -6.3 0.4 6.7
v -6.7 0.7 10.5
v -6.3 0.7 10.5
v -6.7 0.7 10.4
v -6.3 0.7 10.4
v -6.7 0.7 6.6
v -6.3 0.7 6.6
v -6.7 0.7 6.5
v -6.3 0.7 6.5
v -6.7 0.8 10.4
v -6.3 0.8 10.4
v -6.7 0.8 10.3
v -6.3 0.8 10.3
v -6.7 0.8 10.2
v -6.3 0.8 10.2
v -6.7 0.8 9.6
v -6.3 0.8 9.6
v -6.7 0.8 9.5
v -6.3 0.8 9.5
v -6.7 0.8 7.6
v -6.3 0.8 7.6
v -6.7 0.8 7.4
v -6.3 0.8 7.4
v -6.7 0.8 6.9
v -6.3 0.8 6.9
v -6.7 0.8 6.7
v -6.3 0.8 6.7
v -6.7 0.8 6.6
v -6.3 0.8 6.6
v -6.7 0.9 10.2
v -6.3 0.9 10.2
v -6.7 0.9 10.1
v -6.3 0.9 10.1
v -6.7 0.9 10
v -6.3 0.9 10
v -6.7 0.9 9.9
v -6.3 0.9 9.9
v -6.7 0.9 9.7
v -6.3 0.9 9.7
v -6.7 0.9 9.6
v -6.3 0.9 9.6
v -6.7 0.9 9.5
v -6.3 0.9 9.5
v -6.7 0.9 9.4
v -6.3 0.9 9.4
v -6.7 0.9 9.3
v -6.3 0.9 9.3
v -6.7 0.9 9.1
v -6.3 0.9 9.1
v -6.7 0.9 9
v -6.3 0.9 9
v -6.7 0.9 8.8
v -6.3 0.9 8.8
v -6.7 0.9 8.7
v -6.3 0.9 8.7
v -6.7 0.9 8.5
v -6.3 0.9 8.5
v -6.7 0.9 8.4
v -6.3 0.9 8.4
v -6.7 0.9 8.2
v -6.3 0.9 8.2
v -6.7 0.9 8.1
v -6.3 0.9 8.1
v -6.7 0.9 7.9
v -6.3 0.9 7.9
v -6.7 0.9 7.8
v -6.3 0.9 7.8
v -6.7 0.9 7.7
v -6.3 0.9 7.7
v -6.7 0.9 7.6
v -6.3 0.9 7.6
v -6.7 0.9 7.4
v -6.3 0.9 7.4
v -6.7 0.9 7.3
v -6.3 0.9 7.3
v -6.7 0.9 7.2
v -6.3 0.9 7.2
v -6.7 0.9 7.1
v -6.3 0.9 7.1
v -6.7 0.9 7
v -6.3 0.9 7
v -6.7 0.9 6.9
v -6.3 0.9 6.9

# faces
f 5/5/1 2/5/1 1/5/1
f 6/2/1 3/2/1 2/2/1
f 6/5/1 2/5/1 5/5/1
f 7/2/1 3/2/1 6/2/1
f 11/5/1 5/5/1 4/5/1
f 12/6/1 6/6/1 5/6/1
f 12/5/1 5/5/1 11/5/1
f 13/5/1 7/5/1 6/5/1
f 13/6/1 6/6/1 12/6/1
f 13/5/1 8/5/1 7/5/1
f 14/4/1 9/4/1 8/4/1
f 14/5/1 8/5/1 13/5/1
f 15/4/1 9/4/1 14/4/1
f 17/6/1 13/6/1 12/6/1
f 17/5/1 16/5/1 15/5/1
f 17/6/1 15/6/1 14/6/1
f 17/6/1 14/6/1 13/6/1
f 17/6/1 12/6/1 11/6/1
f 18/5/1 16/5/1 17/5/1
f 20/5/1 11/5/1 10/5/1
f 21/6/1 17/6/1 11/6/1
f 21/5/1 11/5/1 20/5/1
f 21/6/1 18/6/1 17/6/1
f 22/4/1 19/4/1 18/4/1
f 22/6/1 18/6/1 21/6/1
f 23/4/1 19/4/1 22/4/1
f 24/4/1 21/4/1 20/4/1
f 25/6/1 22/6/1 21/6/1
f 25/4/1 21/4/1 24/4/1
f 26/6/1 22/6/1 25/6/1
f 27/5/1 23/5/1 22/5/1
f 27/6/1 22/6/1 26/6/1
f 28/5/1 23/5/1 27/5/1
f 29/5/1 25/5/1 24/5/1
f 30/6/1 26/6/1 25/6/1
f 30/5/1 25/5/1 29/5/1
f 31/6/1 26/6/1 30/6/1
f 32/6/1 26/6/1 31/6/1
f 33/6/1 26/6/1 32/6/1
f 34/6/1 26/6/1 33/6/1
f 35/6/1 26/6/1 34/6/1
f 36/6/1 26/6/1 35/6/1
f 37/6/1 26/6/1 36/6/1
f 38/6/1 26/6/1 37/6/1
f 39/6/1 26/6/1 38/6/1
f 40/5/1 27/5/1 26/5/1
f 40/6/1 26/6/1 39/6/1
f 41/4/1 28/4/1 27/4/1
f 41/5/1 27/5/1 40/5/1
f 42/4/1 28/4/1 41/4/1
f 43/4/1 31/4/1 30/4/1
f 44/5/1 32/5/1 31/5/1
f 44/4/1 31/4/1 43/4/1
f 45/4/1 33/4/1 32/4/1
f 45/5/1 32/5/1 44/5/1
f 46/6/1 34/6/1 33/6/1
f 46/4/1 33/4/1 45/4/1
f 47/6/1 34/6/1 46/6/1
f 48/6/1 34/6/1 47/6/1
f 49/6/1 34/6/1 48/6/1
f 50/3/1 35/3/1 34/3/1
f 50/6/1 34/6/1 49/6/1
f 51/6/1 36/6/1 35/6/1
f 51/3/1 35/3/1 50/3/1
f 52/6/1 36/6/1 51/6/1
f 53/6/1 36/6/1 52/6/1
f 54/6/1 36/6/1 53/6/1
f 55/6/1 36/6/1 54/6/1
f 56/6/1 36/6/1 55/6/1
f 57/6/1 36/6/1 56/6/1
f 58/6/1 36/6/1 57/6/1
f 59/6/1 36/6/1 58/6/1
f 60/6/1 36/6/1 59/6/1
f 61/6/1 36/6/1 60/6/1
f 62/6/1 36/6/1 61/6/1
f 63/6/1 36/6/1 62/6/1
f 64/6/1 36/6/1 63/6/1
f 65/3/1 37/3/1 36/3/1
f 65/6/1 36/6/1 64/6/1
f 66/6/1 38/6/1 37/6/1
f 66/3/1 37/3/1 65/3/1
f 67/6/1 38/6/1 66/6/1
f 68/6/1 38/6/1 67/6/1
f 69/6/1 38/6/1 68/6/1
f 70/4/1 39/4/1 38/4/1
f 70/6/1 38/6/1 69/6/1
f 71/5/1 40/5/1 39/5/1
f 71/4/1 39/4/1 70/4/1
f 72/2/1 41/2/1 40/2/1
f 72/5/1 40/5/1 71/5/1
f 73/2/1 41/2/1 72/2/1
f 74/2/1 46/2/1 45/2/1
f 75/5/1 47/5/1 46/5/1
f 75/2/1 46/2/1 74/2/1
f 76/4/1 48/4/1 47/4/1
f 76/5/1 47/5/1 75/5/1
f 77/5/1 49/5/1 48/5/1
f 77/4/1 48/4/1 76/4/1
f 78/4/1 50/4/1 49/4/1
f 78/5/1 49/5/1 77/5/1
f 79/4/1 50/4/1 78/4/1
f 80/5/1 52/5/1 51/5/1
f 81/4/1 53/4/1 52/4/1
f 81/5/1 52/5/1 80/5/1
f 82/5/1 54/5/1 53/5/1
f 82/4/1 53/4/1 81/4/1
f 83/4/1 55/4/1 54/4/1
f 83/5/1 54/5/1 82/5/1
f 84/3/1 56/3/1 55/3/1
f 84/4/1 55/4/1 83/4/1
f 85/4/1 57/4/1 56/4/1
f 85/3/1 56/3/1 84/3/1
f 86/5/1 58/5/1 57/5/1
f 86/4/1 57/4/1 85/4/1
f 87/4/1 59/4/1 58/4/1
f 87/5/1 58/5/1 86/5/1
f 88/5/1 60/5/1 59/5/1
f 88/4/1 59/4/1 87/4/1
f 89/4/1 61/4/1 60/4/1
f 89/5/1 60/5/1 88/5/1
f 90/5/1 62/5/1 61/5/1
f 90/4/1 61/4/1 89/4/1
f 91/4/1 63/4/1 62/4/1
f 91/5/1 62/5/1 90/5/1
f 92/5/1 64/5/1 63/5/1
f 92/4/1 63/4/1 91/4/1
f 93/2/1 65/2/1 64/2/1
f 93/5/1 64/5/1 92/5/1
f 94/2/1 65/2/1 93/2/1
f 95/5/1 67/5/1 66/5/1
f 96/4/1 68/4/1 67/4/1
f 96/5/1 67/5/1 95/5/1
f 97/5/1 69/5/1 68/5/1
f 97/4/1 68/4/1 96/4/1
f 98/4/1 70/4/1 69/4/1
f 98/5/1 69/5/1 97/5/1
f 99/6/1 71/6/1 70/6/1
f 99/4/1 70/4/1 98/4/1
f 100/6/1 71/6/1 99/6/1
f 101/5/2 102/5/2 104/5/2
f 104/5/2 102/5/2 105/5/2
f 103/5/2 104/5/2 107/5/2
f 105/5/2 106/5/2 107/5/2
f 104/5/2 105/5/2 107/5/2
f 107/5/2 106/5/2 108/5/2
f 108/5/2 106/5/2 109/5/2
f 109/5/2 106/5/2 110/5/2
f 108/5/2 109/5/2 111/5/2
f 111/5/2 109/5/2 112/5/2
f 112/5/2 109/5/2 113/5/2
f 113/5/2 109/5/2 114/5/2
f 114/5/2 109/5/2 115/5/2
f 115/5/2 109/5/2 116/5/2
f 117/5/2 118/5/2 121/5/2
f 118/2/2 119/2/2 122/2/2
f 121/5/2 118/5/2 122/5/2
f 122/2/2 119/2/2 123/2/2
f 120/5/2 121/5/2 127/5/2
f 121/6/2 122/6/2 128/6/2
f 127/5/2 121/5/2 128/5/2
f 122/5/2 123/5/2 129/5/2
f 128/6/2 122/6/2 129/6/2
f 123/5/2 124/5/2 129/5/2
f 124/4/2 125/4/2 130/4/2
f 129/5/2 124/5/2 130/5/2
f 130/4/2 125/4/2 131/4/2
f 127/6/2 128/6/2 133/6/2
f 133/6/2 128/6/2 134/6/2
f 130/6/2 131/6/2 135/6/2
f 129/6/2 130/6/2 135/6/2
f 131/5/2 132/5/2 136/5/2
f 135/6/2 131/6/2 136/6/2
f 136/5/2 132/5/2 137/5/2
f 126/5/2 127/5/2 139/5/2
f 127/6/2 133/6/2 140/6/2
f 139/5/2 127/5/2 140/5/2
f 137/4/2 138/4/2 141/4/2
f 136/6/2 137/6/2 141/6/2
f 141/4/2 138/4/2 142/4/2
f 139/4/2 140/4/2 143/4/2
f 140/6/2 133/6/2 144/6/2
f 143/4/2 140/4/2 144/4/2
f 144/6/2 133/6/2 145/6/2
f 136/6/2 141/6/2 148/6/2
f 141/5/2 142/5/2 149/5/2
f 148/6/2 141/6/2 149/6/2
f 149/5/2 142/5/2 150/5/2
f 143/5/2 144/5/2 151/5/2
f 145/6/2 146/6/2 152/6/2
f 151/5/2 144/5/2 152/5/2
f 144/6/2 145/6/2 152/6/2
f 152/6/2 146/6/2 153/6/2
f 153/6/2 146/6/2 154/6/2
f 154/6/2 146/6/2 155/6/2
f 147/6/2 148/6/2 160/6/2
f 160/6/2 148/6/2 161/6/2
f 148/5/2 149/5/2 162/5/2
f 161/6/2 148/6/2 162/6/2
f 149/4/2 150/4/2 163/4/2
f 162/5/2 149/5/2 163/5/2
f 163/4/2 150/4/2 164/4/2
f 152/4/2 153/4/2 165/4/2
f 153/5/2 154/5/2 166/5/2
f 165/4/2 153/4/2 166/4/2
f 154/4/2 155/4/2 167/4/2
f 166/5/2 154/5/2 167/5/2
f 155/6/2 156/6/2 168/6/2
f 167/4/2 155/4/2 168/4/2
f 168/6/2 156/6/2 169/6/2
f 169/6/2 156/6/2 170/6/2
f 170/6/2 156/6/2 171/6/2
f 156/3/2 157/3/2 172/3/2
f 171/6/2 156/6/2 172/6/2
f 157/6/2 158/6/2 173/6/2
f 172/3/2 157/3/2 173/3/2
f 173/6/2 158/6/2 174/6/2
f 174/6/2 158/6/2 175/6/2
f 175/6/2 158/6/2 176/6/2
f 176/6/2 158/6/2 177/6/2
f 177/6/2 158/6/2 178/6/2
f 178/6/2 158/6/2 179/6/2
f 179/6/2 158/6/2 180/6/2
f 180/6/2 158/6/2 181/6/2
f 181/6/2 158/6/2 182/6/2
f 182/6/2 158/6/2 183/6/2
f 183/6/2 158/6/2 184/6/2
f 184/6/2 158/6/2 185/6/2
f 185/6/2 158/6/2 186/6/2
f 158/3/2 159/3/2 187/3/2
f 186/6/2 158/6/2 187/6/2
f 159/6/2 160/6/2 188/6/2
f 187/3/2 159/3/2 188/3/2
f 188/6/2 160/6/2 189/6/2
f 189/6/2 160/6/2 190/6/2
f 190/6/2 160/6/2 191/6/2
f 160/4/2 161/4/2 192/4/2
f 191/6/2 160/6/2 192/6/2
f 161/5/2 162/5/2 193/5/2
f 192/4/2 161/4/2 193/4/2
f 162/2/2 163/2/2 194/2/2
f 193/5/2 162/5/2 194/5/2
f 194/2/2 163/2/2 195/2/2
f 167/2/2 168/2/2 196/2/2
f 168/5/2 169/5/2 197/5/2
f 196/2/2 168/2/2 197/2/2
f 169/4/2 170/4/2 198/4/2
f 197/5/2 169/5/2 198/5/2
f 170/5/2 171/5/2 199/5/2
f 198/4/2 170/4/2 199/4/2
f 171/4/2 172/4/2 200/4/2
f 199/5/2 171/5/2 200/5/2
f 200/4/2 172/4/2 201/4/2
f 173/5/2 174/5/2 202/5/2
f 174/4/2 175/4/2 203/4/2
f 202/5/2 174/5/2 203/5/2
f 175/5/2 176/5/2 204/5/2
f 203/4/2 175/4/2 204/4/2
f 176/4/2 177/4/2 205/4/2
f 204/5/2 176/5/2 205/5/2
f 177/3/2 178/3/2 206/3/2
f 205/4/2 177/4/2 206/4/2
f 178/4/2 179/4/2 207/4/2
f 206/3/2 178/3/2 207/3/2
f 179/5/2 180/5/2 208/5/2
f 207/4/2 179/4/2 208/4/2
f 180/4/2 181/4/2 209/4/2
f 208/5/2 180/5/2 209/5/2
f 181/5/2 182/5/2 210/5/2
f 209/4/2 181/4/2 210/4/2
f 182/4/2 183/4/2 211/4/2
f 210/5/2 182/5/2 211/5/2
f 183/5/2 184/5/2 212/5/2
f 211/4/2 183/4/2 212/4/2
f 184/4/2 185/4/2 213/4/2
f 212/5/2 184/5/2 213/5/2
f 185/5/2 186/5/2 214/5/2
f 213/4/2 185/4/2 214/4/2
f 186/2/2 187/2/2 215/2/2
f 214/5/2 186/5/2 215/5/2
f 215/2/2 187/2/2 216/2/2
f 188/5/2 189/5/2 217/5/2
f 189/4/2 190/4/2 218/4/2
f 217/5/2 189/5/2 218/5/2
f 190/5/2 191/5/2 219/5/2
f 218/4/2 190/4/2 219/4/2
f 191/4/2 192/4/2 220/4/2
f 219/5/2 191/5/2 220/5/2
f 192/6/2 193/6/2 221/6/2
f 220/4/2 192/4/2 221/4/2
f 221/6/2 193/6/2 222/6/2
f 227/5/3 224/5/3 223/5/3
f 228/4/3 225/4/3 224/4/3
f 228/5/3 224/5/3 227/5/3
f 229/5/3 226/5/3 225/5/3
f 229/4/3 225/4/3 228/4/3
f 230/5/3 226/5/3 229/5/3
f 235/5/3 232/5/3 231/5/3
f 236/5/3 232/5/3 235/5/3
f 237/4/3 234/4/3 233/4/3
f 238/4/3 234/4/3 237/4/3
f 241/2/3 240/2/3 239/2/3
f 242/2/3 240/2/3 241/2/3
f 245/5/3 244/5/3 243/5/3
f 246/5/3 244/5/3 245/5/3
f 249/5/3 248/5/3 247/5/3
f 250/5/3 248/5/3 249/5/3
f 253/5/3 252/5/3 251/5/3
f 254/5/3 252/5/3 253/5/3
f 259/6/3 256/6/3 255/6/3
f 260/6/3 256/6/3 259/6/3
f 261/6/3 258/6/3 257/6/3
f 262/6/3 258/6/3 261/6/3
f 265/6/3 264/6/3 263/6/3
f 266/6/3 264/6/3 265/6/3
f 267/6/4 268/6/4 269/6/4
f 269/6/4 268/6/4 270/6/4
f 271/6/4 272/6/4 273/6/4
f 273/6/4 272/6/4 274/6/4
f 275/6/4 276/6/4 277/6/4
f 277/6/4 276/6/4 278/6/4
f 279/4/4 280/4/4 281/4/4
f 281/4/4 280/4/4 282/4/4
f 283/2/4 284/2/4 285/2/4
f 285/2/4 284/2/4 286/2/4
f 287/2/4 288/2/4 291/2/4
f 291/2/4 288/2/4 292/2/4
f 289/6/4 290/6/4 293/6/4
f 293/6/4 290/6/4 294/6/4
f 295/4/4 296/4/4 297/4/4
f 297/4/4 296/4/4 298/4/4
f 299/5/4 300/5/4 303/5/4
f 303/5/4 300/5/4 304/5/4
f 301/2/4 302/2/4 305/2/4
f 305/2/4 302/2/4 306/2/4
f 307/4/4 308/4/4 311/4/4
f 308/5/4 309/5/4 312/5/4
f 311/4/4 308/4/4 312/4/4
f 309/4/4 310/4/4 313/4/4
f 312/5/4 309/5/4 313/5/4
f 313/4/4 310/4/4 314/4/4
f 317/5/5 316/5/5 315/5/5
f 318/5/5 316/5/5 317/5/5
f 319/2/5 318/2/5 317/2/5
f 320/2/5 318/2/5 319/2/5
f 323/5/5 322/5/5 321/5/5
f 324/5/5 322/5/5 323/5/5
f 327/5/5 326/5/5 325/5/5
f 328/5/5 326/5/5 327/5/5
f 329/4/5 328/4/5 327/4/5
f 330/4/5 328/4/5 329/4/5
f 333/5/5 332/5/5 331/5/5
f 334/5/5 332/5/5 333/5/5
f 337/5/5 336/5/5 335/5/5
f 338/5/5 336/5/5 337/5/5
f 341/4/5 340/4/5 339/4/5
f 342/4/5 340/4/5 341/4/5
f 345/6/5 344/6/5 343/6/5
f 346/6/5 344/6/5 345/6/5
f 349/6/5 348/6/5 347/6/5
f 350/6/5 348/6/5 349/6/5
f 353/6/5 352/6/5 351/6/5
f 354/6/5 352/6/5 353/6/5
f 355/3/5 354/3/5 353/3/5
f 356/3/5 354/3/5 355/3/5
f 357/6/5 356/6/5 355/6/5
f 358/6/5 356/6/5 357/6/5
f 359/3/5 358/3/5 357/3/5
f 360/3/5 358/3/5 359/3/5
f 361/6/5 360/6/5 359/6/5
f 362/6/5 360/6/5 361/6/5
f 363/6/6 364/6/6 365/6/6
f 365/6/6 364/6/6 366/6/6
f 367/6/6 368/6/6 369/6/6
f 369/6/6 368/6/6 370/6/6
f 371/6/6 372/6/6 373/6/6
f 373/6/6 372/6/6 374/6/6
f 375/5/6 376/5/6 377/5/6
f 377/5/6 376/5/6 378/5/6
f 379/4/6 380/4/6 381/4/6
f 381/4/6 380/4/6 382/4/6
f 383/4/6 384/4/6 385/4/6
f 385/4/6 384/4/6 386/4/6
f 385/5/6 386/5/6 387/5/6
f 387/5/6 386/5/6 388/5/6
f 389/3/6 390/3/6 391/3/6
f 391/3/6 390/3/6 392/3/6
f 393/3/6 394/3/6 395/3/6
f 395/3/6 394/3/6 396/3/6
f 397/5/6 398/5/6 399/5/6
f 399/5/6 398/5/6 400/5/6
f 399/2/6 400/2/6 401/2/6
f 401/2/6 400/2/6 402/2/6
f 403/2/6 404/2/6 405/2/6
f 405/2/6 404/2/6 406/2/6
f 405/5/6 406/5/6 407/5/6
f 407/5/6 406/5/6 408/5/6
f 407/4/6 408/4/6 409/4/6
f 409/4/6 408/4/6 410/4/6
f 409/5/6 410/5/6 411/5/6
f 411/5/6 410/5/6 412/5/6
f 411/4/6 412/4/6 413/4/6
f 413/4/6 412/4/6 414/4/6
f 415/5/6 416/5/6 417/5/6
f 417/5/6 416/5/6 418/5/6
f 417/4/6 418/4/6 419/4/6
f 419/4/6 418/4/6 420/4/6
f 419/5/6 420/5/6 421/5/6
f 421/5/6 420/5/6 422/5/6
f 421/4/6 422/4/6 423/4/6
f 423/4/6 422/4/6 424/4/6
f 423/3/6 424/3/6 425/3/6
f 425/3/6 424/3/6 426/3/6
f 425/4/6 426/4/6 427/4/6
f 427/4/6 426/4/6 428/4/6
f 427/5/6 428/5/6 429/5/6
f 429/5/6 428/5/6 430/5/6
f 429/4/6 430/4/6 431/4/6
f 431/4/6 430/4/6 432/4/6
f 431/5/6 432/5/6 433/5/6
f 433/5/6 432/5/6 434/5/6
f 433/4/6 434/4/6 435/4/6
f 435/4/6 434/4/6 436/4/6
f 435/5/6 436/5/6 437/5/6
f 437/5/6 436/5/6 438/5/6
f 437/4/6 438/4/6 439/4/6
f 439/4/6 438/4/6 440/4/6
f 439/5/6 440/5/6 441/5/6
f 441/5/6 440/5/6 442/5/6
f 441/2/6 442/2/6 443/2/6
f 443/2/6 442/2/6 444/2/6
f 445/5/6 446/5/6 447/5/6
f 447/5/6 446/5/6 448/5/6
f 447/4/6 448/4/6 449/4/6
f 449/4/6 448/4/6 450/4/6
f 449/5/6 450/5/6 451/5/6
f 451/5/6 450/5/6 452/5/6
f 451/4/6 452/4/6 453/4/6
f 453/4/6 452/4/6 454/4/6
f 453/6/6 454/6/6 455/6/6
f 455/6/6 454/6/6 456/6/6
